Land_normalized_pl10_filtered_grf
version=1
nRows=20
nColumns=37
inDegrees=yes
endheader
time		1_ground_force_vx		1_ground_force_vy		1_ground_force_vz		1_ground_force_px		1_ground_force_py		1_ground_force_pz		1_ground_torque_x		1_ground_torque_y		1_ground_torque_z		2_ground_force_vx		2_ground_force_vy		2_ground_force_vz		2_ground_force_px		2_ground_force_py		2_ground_force_pz		2_ground_torque_x		2_ground_torque_y		2_ground_torque_z		3_ground_force_vx		3_ground_force_vy		3_ground_force_vz		3_ground_force_px		3_ground_force_py		3_ground_force_pz		3_ground_torque_x		3_ground_torque_y		3_ground_torque_z		4_ground_force_vx		4_ground_force_vy		4_ground_force_vz		4_ground_force_px		4_ground_force_py		4_ground_force_pz		4_ground_torque_x		4_ground_torque_y		4_ground_torque_z		
0.594500		6.776103		-39.124717		-34.607941		0.135853		0.000000		0.230825		-0.025391		0.146605		0.129680		-4.947701		-22.153219		-4.540846		-0.135786		0.000000		0.259242		0.031217		0.139774		0.028650		21.695786		1.451496		0.459948		0.376186		1.311481		1.914203		-0.093303		-0.006242		-0.001978		-18.562154		-0.926740		1.999257		-0.265111		1.310057		1.925116		0.021798		0.001088		-0.002348		
0.597429		10.303406		-64.008914		-55.331931		0.137480		0.000000		0.232037		-0.049952		0.310335		0.268264		-3.178475		-54.971551		-21.114089		-0.138705		0.000000		0.254605		0.051769		0.897105		0.344679		21.836124		1.432976		0.532343		0.376152		1.311457		1.914201		-0.091889		-0.006030		-0.002241		-18.763186		-0.881564		2.073808		-0.265141		1.310058		1.925116		0.021916		0.001029		-0.002422		
0.600359		10.850770		-70.359248		-60.726837		0.139553		0.000000		0.232478		-0.068767		0.445931		0.384890		1.372156		-79.936655		-37.110102		-0.139417		0.000000		0.254526		-0.028917		1.676451		0.778430		21.989166		1.451364		0.622239		0.376120		1.311431		1.914206		-0.090913		-0.006001		-0.002573		-18.914633		-0.789201		2.151360		-0.265164		1.310056		1.925116		0.021329		0.000890		-0.002426		
0.603288		6.031005		-39.795216		-36.807608		0.147684		0.000000		0.231060		-0.070725		0.466588		0.432296		8.470999		-78.041675		-43.662390		-0.141011		0.000000		0.257496		-0.220954		2.031069		1.136840		22.113662		1.510651		0.701094		0.376090		1.311407		1.914216		-0.090911		-0.006210		-0.002882		-18.978328		-0.664214		2.214889		-0.265184		1.310052		1.925115		0.020279		0.000710		-0.002367		
0.606217		-5.775894		43.600265		27.084881		0.119209		0.000000		0.239217		-0.080252		0.606831		0.372195		16.733895		-28.960147		-29.981125		-0.156656		0.000000		0.294121		-0.651062		1.115273		1.161282		22.182886		1.605731		0.745749		0.376063		1.311384		1.914230		-0.092206		-0.006674		-0.003100		-18.951559		-0.530368		2.253260		-0.265204		1.310048		1.925113		0.019098		0.000534		-0.002271		
0.609146		-24.426727		186.907568		132.674742		0.130215		0.000000		0.237468		-0.054580		0.417496		0.296336		23.686771		82.078086		13.541374		-0.117417		0.000000		0.235502		-0.058349		-0.219608		-0.041337		22.188614		1.720777		0.744122		0.376036		1.311364		1.914244		-0.094694		-0.007344		-0.003175		-18.863587		-0.414576		2.264760		-0.265225		1.310041		1.925112		0.018088		0.000397		-0.002172		
0.612076		-47.347832		383.357382		268.539309		0.131841		0.000000		0.238189		-0.048519		0.392826		0.275179		26.394096		256.821423		91.348377		-0.127990		0.000000		0.238528		-0.368128		-3.585972		-1.275922		22.142351		1.833102		0.696673		0.376011		1.311351		1.914253		-0.097874		-0.008102		-0.003079		-18.758797		-0.338219		2.256046		-0.265251		1.310033		1.925110		0.017434		0.000315		-0.002097		
0.615005		-69.697603		611.586155		409.987866		0.132111		0.000000		0.239556		-0.090880		0.797477		0.534597		22.661219		479.143257		199.268290		-0.128778		0.000000		0.237753		-0.396779		-8.389669		-3.489148		22.070980		1.921169		0.613011		0.375988		1.311342		1.914256		-0.101056		-0.008796		-0.002806		-18.676146		-0.311580		2.236928		-0.265281		1.310025		1.925108		0.017153		0.000286		-0.002055		
0.617934		-85.648437		840.721715		524.675997		0.131791		0.000000		0.241508		-0.214319		2.104304		1.313021		12.475349		716.081770		323.396426		-0.127808		0.000000		0.235100		-0.241106		-13.843824		-6.252237		22.006456		1.971563		0.506491		0.375964		1.311339		1.914245		-0.103619		-0.009284		-0.002385		-18.634057		-0.334148		2.213304		-0.265316		1.310018		1.925106		0.017096		0.000306		-0.002031		
0.620864		-90.791291		1040.260855		584.168858		0.131147		0.000000		0.244115		-0.421240		4.829210		2.710812		-0.879256		926.644340		442.622074		-0.125888		0.000000		0.230755		0.017873		-18.790473		-8.975550		21.973536		1.981653		0.391018		0.375937		1.311339		1.914223		-0.105220		-0.009489		-0.001872		-18.627165		-0.396808		2.182041		-0.265355		1.310012		1.925103		0.017031		0.000363		-0.001995		
0.623793		-84.297403		1189.623590		575.668272		0.130423		0.000000		0.247382		-0.656994		9.278911		4.487581		-11.133658		1076.611628		535.296501		-0.123340		0.000000		0.224602		0.226408		-21.895085		-10.886283		21.981476		1.956725		0.277925		0.375906		1.311338		1.914189		-0.105799		-0.009418		-0.001338		-18.636023		-0.484334		2.131920		-0.265397		1.310009		1.925100		0.016756		0.000436		-0.001916		
0.626722		-69.447419		1282.252433		508.174322		0.129883		0.000000		0.251136		-0.821943		15.188076		6.015639		-10.897382		1151.297934		586.636764		-0.120695		0.000000		0.216729		0.207847		-21.945206		-11.181900		22.021876		1.905620		0.176197		0.375870		1.311336		1.914145		-0.105463		-0.009126		-0.000844		-18.639564		-0.576215		2.050076		-0.265442		1.310008		1.925096		0.016167		0.000500		-0.001778		
0.629652		-51.887660		1324.417536		409.596826		0.129669		0.000000		0.254979		-0.843597		21.544668		6.660136		5.343714		1160.302652		593.817674		-0.118957		0.000000		0.207981		-0.082687		-18.124751		-9.276018		22.070833		1.836395		0.093165		0.375832		1.311328		1.914095		-0.104381		-0.008685		-0.000440		-18.624846		-0.649228		1.932353		-0.265487		1.310011		1.925092		0.015279		0.000533		-0.001585		
0.632581		-36.665035		1330.039058		315.316024		0.129546		0.000000		0.258253		-0.743364		26.972111		6.393282		38.560258		1133.099507		566.283470		-0.119547		0.000000		0.200683		-0.350155		-10.330508		-5.163628		22.095158		1.753991		0.035383		0.375794		1.311318		1.914043		-0.102757		-0.008158		-0.000165		-18.593285		-0.682942		1.790693		-0.265532		1.310016		1.925087		0.014224		0.000522		-0.001370		
0.635510		-26.068091		1314.460480		253.644421		0.128896		0.000000		0.260157		-0.606699		30.592742		5.903276		84.105838		1108.123512		521.231959		-0.123476		0.000000		0.198808		0.028168		0.367223		0.172473		22.063321		1.661911		0.010044		0.375761		1.311305		1.913994		-0.100836		-0.007595		-0.000046		-18.561854		-0.667038		1.651117		-0.265574		1.310023		1.925081		0.013241		0.000476		-0.001177		
0.638439		-19.670529		1289.935318		236.114504		0.127200		0.000000		0.260064		-0.494078		32.401515		5.930918		132.530390		1119.146324		476.267855		-0.129993		0.000000		0.205728		1.352148		11.408175		4.853375		21.959142		1.568520		0.024887		0.375734		1.311294		1.913952		-0.098947		-0.007068		-0.000112		-18.556867		-0.605898		1.543509		-0.265609		1.310030		1.925072		0.012612		0.000411		-0.001049		
0.641369		-15.888692		1263.870462		255.969723		0.124501		0.000000		0.257924		-0.414923		33.006018		6.684815		172.006492		1182.804731		442.380017		-0.136696		0.000000		0.220198		2.839782		19.524918		7.301185		21.793410		1.493320		0.085972		0.375717		1.311285		1.913916		-0.097484		-0.006680		-0.000384		-18.601815		-0.517072		1.488398		-0.265635		1.310036		1.925061		0.012552		0.000349		-0.001004		
0.644298		-13.456506		1239.233126		295.889031		0.121342		0.000000		0.254452		-0.359787		33.134074		7.911552		191.956111		1292.977696		420.710343		-0.141535		0.000000		0.237003		3.333813		22.455095		7.307123		21.604627		1.465023		0.196765		0.375707		1.311280		1.913889		-0.096828		-0.006566		-0.000882		-18.706530		-0.424012		1.487974		-0.265649		1.310039		1.925044		0.013099		0.000297		-0.001042		
0.647227		-11.635570		1216.185161		337.600044		0.118420		0.000000		0.250929		-0.318431		33.284252		9.239576		186.750484		1423.483123		404.327799		-0.143794		0.000000		0.251611		2.558385		19.490608		5.538228		21.449840		1.509485		0.355336		0.375704		1.311279		1.913867		-0.097191		-0.006840		-0.001610		-18.862731		-0.349860		1.524680		-0.265648		1.310040		1.925024		0.014092		0.000261		-0.001139		
0.650157		-9.740181		1193.645317		368.463755		0.116286		0.000000		0.248638		-0.273847		33.560699		10.359922		158.424834		1538.580848		383.366473		-0.143751		0.000000		0.262235		1.121033		10.864678		2.709586		21.386120		1.634797		0.550011		0.375704		1.311282		1.913849		-0.098516		-0.007531		-0.002534		-19.048857		-0.312792		1.567779		-0.265630		1.310040		1.925001		0.015270		0.000250		-0.001257		
